<?xml version="1.0" encoding="UTF-8" standalone="no"?>
<!-- Created with Inkscape (http://www.inkscape.org/) -->
<!-- SPDX-License-Identifier: BSD-3-Clause -->
<!-- Copyright(C) 2024 Marvell International Ltd. -->
<svg
   xmlns:dc="http://purl.org/dc/elements/1.1/"
   xmlns:cc="http://creativecommons.org/ns#"
   xmlns:rdf="http://www.w3.org/1999/02/22-rdf-syntax-ns#"
   xmlns:svg="http://www.w3.org/2000/svg"
   xmlns="http://www.w3.org/2000/svg"
   id="svg100"
   version="1.1"
   overflow="hidden"
   xml:space="preserve"
   height="2075"
   width="3423"><metadata
     id="metadata106"><rdf:RDF><cc:Work
         rdf:about=""><dc:format>image/svg+xml</dc:format><dc:type
           rdf:resource="http://purl.org/dc/dcmitype/StillImage" /><dc:title></dc:title></cc:Work></rdf:RDF></metadata><defs
     id="defs104" /><g
     id="g98"
     transform="translate(-590 -205)"><path
       id="path2"
       fill-rule="evenodd"
       fill="#00B5E2"
       stroke-miterlimit="8"
       stroke-width="6.875"
       stroke="#212322"
       d="M593.5 358.5C593.5 275.657 735.426 208.5 910.5 208.5 1085.57 208.5 1227.5 275.657 1227.5 358.5 1227.5 441.343 1085.57 508.5 910.5 508.5 735.426 508.5 593.5 441.343 593.5 358.5Z" /><text
       id="text4"
       transform="matrix(1 0 0 1 770.408 388)"
       font-size="83"
       font-weight="400"
       font-family="Arial,Arial_MSFontService,sans-serif"
       fill="#212322">Node</text>
<text
       id="text6"
       transform="matrix(1 0 0 1 967.492 388)"
       font-size="83"
       font-weight="400"
       font-family="Arial,Arial_MSFontService,sans-serif"
       fill="#212322">-</text>
<text
       id="text8"
       transform="matrix(1 0 0 1 994.992 388)"
       font-size="83"
       font-weight="400"
       font-family="Arial,Arial_MSFontService,sans-serif"
       fill="#212322">A</text>
<path
       id="path10"
       fill-rule="evenodd"
       fill="#00B5E2"
       stroke-miterlimit="8"
       stroke-width="6.875"
       stroke="#212322"
       d="M596.5 1475.5C596.5 1392.66 738.65 1325.5 914 1325.5 1089.35 1325.5 1231.5 1392.66 1231.5 1475.5 1231.5 1558.34 1089.35 1625.5 914 1625.5 738.65 1625.5 596.5 1558.34 596.5 1475.5Z" /><text
       id="text12"
       transform="matrix(1 0 0 1 773.708 1505)"
       font-size="83"
       font-weight="400"
       font-family="Arial,Arial_MSFontService,sans-serif"
       fill="#212322">Node</text>
<text
       id="text14"
       transform="matrix(1 0 0 1 970.792 1505)"
       font-size="83"
       font-weight="400"
       font-family="Arial,Arial_MSFontService,sans-serif"
       fill="#212322">-</text>
<text
       id="text16"
       transform="matrix(1 0 0 1 998.292 1505)"
       font-size="83"
       font-weight="400"
       font-family="Arial,Arial_MSFontService,sans-serif"
       fill="#212322">B</text>
<path
       id="path18"
       fill-rule="evenodd"
       fill="#00B050"
       stroke-miterlimit="8"
       stroke-width="6.875"
       stroke="#212322"
       d="M1297.5 947C1297.5 863.881 1435.62 796.5 1606 796.5 1776.38 796.5 1914.5 863.881 1914.5 947 1914.5 1030.12 1776.38 1097.5 1606 1097.5 1435.62 1097.5 1297.5 1030.12 1297.5 947Z" /><text
       id="text20"
       transform="matrix(1 0 0 1 1425.81 974)"
       font-size="73"
       font-weight="400"
       font-family="Arial,Arial_MSFontService,sans-serif"
       fill="#212322">Feature </text>
<text
       id="text22"
       transform="matrix(1 0 0 1 1699.09 974)"
       font-size="73"
       font-weight="400"
       font-family="Arial,Arial_MSFontService,sans-serif"
       fill="#212322">-</text>
<text
       id="text24"
       transform="matrix(1 0 0 1 1744.35 974)"
       font-size="73"
       font-weight="400"
       font-family="Arial,Arial_MSFontService,sans-serif"
       fill="#212322">1</text>
<path
       id="path26"
       fill="#63666A"
       d="M913.938 508.486 917.145 1302.23 910.27 1302.25 907.063 508.514ZM927.439 1297.6 913.8 1325.16 899.939 1297.71Z" /><path
       id="path28"
       fill="#003967"
       d="M911.378 506.383 928.313 513.406 926.557 517.639 909.622 510.617ZM941.014 518.672 957.949 525.695 956.194 529.929 939.259 522.906ZM970.651 530.962 987.586 537.984 985.83 542.218 968.895 535.195ZM1000.29 543.251 1017.22 550.274 1015.47 554.507 998.531 547.485ZM1029.92 555.54 1046.86 562.563 1045.1 566.797 1028.17 559.774ZM1059.56 567.83 1076.49 574.852 1074.74 579.086 1057.8 572.064ZM1089.2 580.119 1106.13 587.142 1104.38 591.375 1087.44 584.353ZM1118.83 592.409 1135.77 599.431 1134.01 603.665 1117.08 596.642ZM1148.47 604.698 1165.4 611.72 1163.65 615.954 1146.71 608.932ZM1178.1 616.987 1195.04 624.01 1193.28 628.244 1176.35 621.221ZM1207.74 629.277 1224.68 636.299 1222.92 640.533 1205.99 633.51ZM1237.38 641.566 1254.31 648.589 1252.56 652.822 1235.62 645.8ZM1267.01 653.855 1283.95 660.878 1282.19 665.112 1265.26 658.089ZM1296.65 666.145 1313.59 673.167 1311.83 677.401 1294.89 670.379ZM1326.29 678.434 1343.22 685.457 1341.47 689.69 1324.53 682.668ZM1355.92 690.724 1372.86 697.746 1371.1 701.98 1354.17 694.957ZM1385.56 703.013 1402.49 710.035 1400.74 714.269 1383.8 707.247ZM1415.2 715.302 1432.13 722.325 1430.38 726.558 1413.44 719.536ZM1444.83 727.592 1461.77 734.614 1460.01 738.848 1443.08 731.825ZM1474.47 739.881 1491.4 746.903 1489.65 751.137 1472.71 744.115ZM1504.1 752.17 1521.04 759.193 1519.28 763.427 1502.35 756.404ZM1533.74 764.46 1550.68 771.482 1548.92 775.716 1531.99 768.693ZM1563.38 776.749 1580.31 783.772 1578.56 788.005 1561.62 780.983ZM1585.58 773.552 1605.72 796.786 1575.05 798.954Z" /><path
       id="path30"
       transform="matrix(-1 0 0 1 1606.42 1097.5)"
       fill="#003967"
       d="M0.71731-2.17651 18.1294 3.56197 16.6948 7.91499-0.71731 2.17651ZM31.1885 7.86584 48.6006 13.6043 47.1659 17.9573 29.7538 12.2189ZM61.6596 17.9082 79.0717 23.6467 77.6371 27.9997 60.225 22.2612ZM92.1308 27.9505 109.543 33.689 108.108 38.042 90.6962 32.3035ZM122.602 37.9929 140.014 43.7314 138.579 48.0844 121.167 42.3459ZM153.073 48.0352 170.485 53.7737 169.051 58.1267 151.638 52.3882ZM183.544 58.0776 200.956 63.816 199.522 68.1691 182.11 62.4306ZM214.015 68.1199 231.428 73.8584 229.993 78.2114 212.581 72.4729ZM244.487 78.1622 261.899 83.9007 260.464 88.2538 243.052 82.5153ZM274.958 88.2046 292.37 93.9431 290.935 98.2961 273.523 92.5576ZM305.429 98.247 322.841 103.985 321.406 108.338 303.994 102.6ZM335.9 108.289 353.312 114.028 351.878 118.381 334.465 112.642ZM366.371 118.332 383.783 124.07 382.349 128.423 364.937 122.685ZM396.842 128.374 414.255 134.112 412.82 138.465 395.408 132.727ZM427.314 138.416 444.726 144.155 443.291 148.508 425.879 142.769ZM457.785 148.459 475.197 154.197 473.762 158.55 456.35 152.812ZM488.256 158.501 505.668 164.24 504.233 168.593 486.821 162.854ZM518.727 168.543 536.139 174.282 534.705 178.635 517.292 172.896ZM549.198 178.586 566.61 184.324 565.176 188.677 547.764 182.939ZM579.669 188.628 597.081 194.367 595.647 198.72 578.235 192.981ZM610.141 198.67 627.553 204.409 626.118 208.762 608.706 203.023ZM640.612 208.713 658.024 214.451 656.589 218.804 639.177 213.066ZM670.101 206.367 691.916 228.034 661.494 232.485Z" /><path
       id="path32"
       fill-rule="evenodd"
       fill="#00B050"
       stroke-miterlimit="8"
       stroke-width="6.875"
       stroke="#212322"
       d="M3375.5 902.5C3375.5 819.657 3517.43 752.5 3692.5 752.5 3867.57 752.5 4009.5 819.657 4009.5 902.5 4009.5 985.343 3867.57 1052.5 3692.5 1052.5 3517.43 1052.5 3375.5 985.343 3375.5 902.5Z" /><text
       id="text34"
       transform="matrix(1 0 0 1 3513.57 933)"
       font-size="83"
       font-weight="400"
       font-family="Arial,Arial_MSFontService,sans-serif"
       fill="#212322">Feature</text>
<text
       id="text36"
       transform="matrix(1 0 0 1 3797.73 933)"
       font-size="83"
       font-weight="400"
       font-family="Arial,Arial_MSFontService,sans-serif"
       fill="#212322">-</text>
<text
       id="text38"
       transform="matrix(1 0 0 1 3825.23 933)"
       font-size="83"
       font-weight="400"
       font-family="Arial,Arial_MSFontService,sans-serif"
       fill="#212322">3</text>
<path
       id="path40"
       fill="#003967"
       d="M910.7 506.217 928.964 507.817 928.563 512.383 910.3 510.783ZM942.661 509.018 960.924 510.618 960.524 515.184 942.261 513.583ZM974.622 511.818 992.885 513.419 992.485 517.985 974.222 516.384ZM1006.58 514.619 1024.85 516.219 1024.45 520.785 1006.18 519.185ZM1038.54 517.42 1056.81 519.02 1056.41 523.586 1038.14 521.986ZM1070.5 520.22 1088.77 521.821 1088.37 526.387 1070.1 524.786ZM1102.47 523.021 1120.73 524.621 1120.33 529.187 1102.07 527.587ZM1134.43 525.822 1152.69 527.422 1152.29 531.988 1134.03 530.388ZM1166.39 528.622 1184.65 530.223 1184.25 534.789 1165.99 533.188ZM1198.35 531.423 1216.61 533.023 1216.21 537.589 1197.95 535.989ZM1230.31 534.224 1248.57 535.824 1248.17 540.39 1229.91 538.79ZM1262.27 537.024 1280.53 538.625 1280.13 543.191 1261.87 541.59ZM1294.23 539.825 1312.49 541.425 1312.09 545.991 1293.83 544.391ZM1326.19 542.626 1344.45 544.226 1344.05 548.792 1325.79 547.192ZM1358.15 545.426 1376.42 547.027 1376.02 551.593 1357.75 549.992ZM1390.11 548.227 1408.38 549.827 1407.98 554.393 1389.71 552.793ZM1422.07 551.028 1440.34 552.628 1439.94 557.194 1421.67 555.594ZM1454.03 553.828 1472.3 555.429 1471.9 559.995 1453.63 558.394ZM1486 556.629 1504.26 558.229 1503.86 562.795 1485.6 561.195ZM1517.96 559.43 1536.22 561.03 1535.82 565.596 1517.56 563.996ZM1549.92 562.23 1568.18 563.831 1567.78 568.397 1549.52 566.796ZM1581.88 565.031 1600.14 566.631 1599.74 571.197 1581.48 569.597ZM1613.84 567.832 1632.1 569.432 1631.7 573.998 1613.44 572.398ZM1645.8 570.632 1664.06 572.233 1663.66 576.799 1645.4 575.198ZM1677.76 573.433 1696.02 575.034 1695.62 579.599 1677.36 577.999ZM1709.72 576.234 1727.98 577.834 1727.58 582.4 1709.32 580.8ZM1741.68 579.034 1759.95 580.635 1759.55 585.201 1741.28 583.6ZM1773.64 581.835 1791.91 583.435 1791.51 588.001 1773.24 586.401ZM1805.6 584.636 1823.87 586.236 1823.47 590.802 1805.2 589.202ZM1837.56 587.436 1855.83 589.037 1855.43 593.603 1837.16 592.002ZM1869.53 590.237 1887.79 591.838 1887.39 596.403 1869.13 594.803ZM1901.49 593.038 1919.75 594.638 1919.35 599.204 1901.09 597.604ZM1933.45 595.839 1951.71 597.439 1951.31 602.005 1933.05 600.404ZM1965.41 598.639 1983.67 600.24 1983.27 604.805 1965.01 603.205ZM1997.37 601.44 2015.63 603.04 2015.23 607.606 1996.97 606.006ZM2029.33 604.24 2047.59 605.841 2047.19 610.407 2028.93 608.806ZM2061.29 607.041 2079.55 608.642 2079.15 613.207 2060.89 611.607ZM2093.25 609.842 2111.51 611.442 2111.11 616.008 2092.85 614.408ZM2125.21 612.643 2143.48 614.243 2143.08 618.809 2124.81 617.208ZM2157.17 615.443 2175.44 617.044 2175.04 621.609 2156.77 620.009ZM2189.13 618.244 2207.4 619.844 2207 624.41 2188.73 622.81ZM2221.09 621.045 2239.36 622.645 2238.96 627.211 2220.69 625.61ZM2253.06 623.845 2271.32 625.446 2270.92 630.011 2252.66 628.411ZM2285.02 626.646 2303.28 628.246 2302.88 632.812 2284.62 631.212ZM2316.98 629.447 2335.24 631.047 2334.84 635.613 2316.58 634.012ZM2348.94 632.247 2367.2 633.848 2366.8 638.413 2348.54 636.813ZM2380.9 635.048 2399.16 636.648 2398.76 641.214 2380.5 639.614ZM2412.86 637.849 2431.12 639.449 2430.72 644.015 2412.46 642.414ZM2444.82 640.649 2463.08 642.25 2462.68 646.815 2444.42 645.215ZM2476.78 643.45 2495.04 645.05 2494.64 649.616 2476.38 648.016ZM2508.74 646.251 2527.01 647.851 2526.6 652.417 2508.34 650.816ZM2540.7 649.051 2558.97 650.652 2558.57 655.217 2540.3 653.617ZM2572.66 651.852 2590.93 653.452 2590.53 658.018 2572.26 656.418ZM2604.62 654.653 2622.89 656.253 2622.49 660.819 2604.22 659.218ZM2636.58 657.453 2654.85 659.054 2654.45 663.62 2636.18 662.019ZM2668.55 660.254 2686.81 661.854 2686.41 666.42 2668.15 664.82ZM2700.51 663.055 2718.77 664.655 2718.37 669.221 2700.11 667.62ZM2732.47 665.855 2750.73 667.456 2750.33 672.021 2732.07 670.421ZM2764.43 668.656 2782.69 670.256 2782.29 674.822 2764.03 673.222ZM2796.39 671.457 2814.65 673.057 2814.25 677.623 2795.99 676.022ZM2828.35 674.257 2846.61 675.858 2846.21 680.424 2827.95 678.823ZM2860.31 677.058 2878.57 678.658 2878.17 683.224 2859.91 681.624ZM2892.27 679.859 2910.53 681.459 2910.13 686.025 2891.87 684.424ZM2924.23 682.659 2942.5 684.26 2942.1 688.826 2923.83 687.225ZM2956.19 685.46 2974.46 687.06 2974.06 691.626 2955.79 690.026ZM2988.15 688.261 3006.42 689.861 3006.02 694.427 2987.75 692.826ZM3020.11 691.061 3038.38 692.662 3037.98 697.228 3019.71 695.627ZM3052.08 693.862 3070.34 695.462 3069.94 700.028 3051.68 698.428ZM3084.04 696.663 3102.3 698.263 3101.9 702.829 3083.64 701.229ZM3116 699.463 3134.26 701.064 3133.86 705.63 3115.6 704.029ZM3147.96 702.264 3166.22 703.864 3165.82 708.43 3147.56 706.83ZM3179.92 705.065 3198.18 706.665 3197.78 711.231 3179.52 709.63ZM3211.88 707.865 3230.14 709.466 3229.74 714.031 3211.48 712.431ZM3243.84 710.666 3262.1 712.266 3261.7 716.832 3243.44 715.232ZM3275.8 713.467 3294.07 715.067 3293.67 719.633 3275.4 718.032ZM3307.76 716.267 3326.03 717.868 3325.63 722.433 3307.36 720.833ZM3339.72 719.068 3357.99 720.668 3357.59 725.234 3339.32 723.634ZM3371.69 721.869 3389.95 723.469 3389.55 728.035 3371.29 726.434ZM3403.65 724.669 3421.91 726.27 3421.51 730.836 3403.25 729.235ZM3435.61 727.47 3453.87 729.07 3453.47 733.636 3435.21 732.036ZM3467.57 730.271 3485.83 731.871 3485.43 736.437 3467.17 734.837ZM3499.53 733.071 3517.79 734.672 3517.39 739.238 3499.13 737.637ZM3531.49 735.872 3549.75 737.472 3549.35 742.038 3531.09 740.438ZM3563.45 738.673 3581.71 740.273 3581.31 744.839 3563.05 743.239ZM3595.41 741.473 3613.68 743.074 3613.28 747.64 3595.01 746.039ZM3627.37 744.274 3645.64 745.875 3645.24 750.44 3626.97 748.84ZM3659.33 747.075 3669.97 748.007 3669.57 752.573 3658.93 751.641ZM3666.42 736.194 3692.62 752.292 3664.02 763.589Z" /><path
       id="path42"
       fill-rule="evenodd"
       fill="#92D050"
       stroke-miterlimit="8"
       stroke-width="6.875"
       stroke="#212322"
       d="M2273.5 951.5C2273.5 868.657 2409.16 801.5 2576.5 801.5 2743.84 801.5 2879.5 868.657 2879.5 951.5 2879.5 1034.34 2743.84 1101.5 2576.5 1101.5 2409.16 1101.5 2273.5 1034.34 2273.5 951.5Z" /><text
       id="text44"
       transform="matrix(1 0 0 1 2396.44 978)"
       font-size="73"
       font-weight="400"
       font-family="Arial,Arial_MSFontService,sans-serif"
       fill="#212322">Feature </text>
<text
       id="text46"
       transform="matrix(1 0 0 1 2669.72 978)"
       font-size="73"
       font-weight="400"
       font-family="Arial,Arial_MSFontService,sans-serif"
       fill="#212322">-</text>
<text
       id="text48"
       transform="matrix(1 0 0 1 2714.98 978)"
       font-size="73"
       font-weight="400"
       font-family="Arial,Arial_MSFontService,sans-serif"
       fill="#212322">2</text>
<path
       id="path50"
       fill="#003967"
       d="M910.896 506.243 928.954 509.413 928.161 513.927 910.104 510.757ZM942.496 511.79 960.554 514.961 959.761 519.475 941.704 516.305ZM974.096 517.338 992.154 520.508 991.361 525.023 973.304 521.853ZM1005.7 522.886 1023.75 526.056 1022.96 530.57 1004.9 527.4ZM1037.3 528.434 1055.35 531.604 1054.56 536.118 1036.5 532.948ZM1068.9 533.981 1086.95 537.152 1086.16 541.666 1068.1 538.496ZM1100.5 539.529 1118.55 542.699 1117.76 547.214 1099.7 544.043ZM1132.1 545.077 1150.15 548.247 1149.36 552.761 1131.3 549.591ZM1163.7 550.625 1181.75 553.795 1180.96 558.309 1162.9 555.139ZM1195.3 556.172 1213.35 559.343 1212.56 563.857 1194.5 560.687ZM1226.9 561.72 1244.95 564.89 1244.16 569.405 1226.1 566.234ZM1258.5 567.268 1276.55 570.438 1275.76 574.952 1257.7 571.782ZM1290.1 572.816 1308.15 575.986 1307.36 580.5 1289.3 577.33ZM1321.7 578.363 1339.75 581.534 1338.96 586.048 1320.9 582.878ZM1353.3 583.911 1371.35 587.081 1370.56 591.596 1352.5 588.425ZM1384.9 589.459 1402.95 592.629 1402.16 597.143 1384.1 593.973ZM1416.5 595.007 1434.55 598.177 1433.76 602.691 1415.7 599.521ZM1448.1 600.554 1466.15 603.724 1465.36 608.239 1447.3 605.069ZM1479.7 606.102 1497.75 609.272 1496.96 613.786 1478.9 610.616ZM1511.3 611.65 1529.35 614.82 1528.56 619.334 1510.5 616.164ZM1542.9 617.198 1560.95 620.368 1560.16 624.882 1542.1 621.712ZM1574.5 622.745 1592.55 625.915 1591.76 630.43 1573.7 627.26ZM1606.1 628.293 1624.15 631.463 1623.36 635.977 1605.3 632.807ZM1637.7 633.841 1655.75 637.011 1654.96 641.525 1636.91 638.355ZM1669.3 639.388 1687.35 642.559 1686.56 647.073 1668.5 643.903ZM1700.9 644.936 1718.95 648.106 1718.16 652.621 1700.1 649.451ZM1732.5 650.484 1750.55 653.654 1749.76 658.168 1731.7 654.998ZM1764.1 656.032 1782.15 659.202 1781.36 663.716 1763.3 660.546ZM1795.7 661.579 1813.75 664.75 1812.96 669.264 1794.91 666.094ZM1827.3 667.127 1845.35 670.297 1844.56 674.812 1826.51 671.641ZM1858.9 672.675 1876.95 675.845 1876.16 680.359 1858.1 677.189ZM1890.5 678.223 1908.55 681.393 1907.76 685.907 1889.71 682.737ZM1922.1 683.77 1940.15 686.941 1939.36 691.455 1921.3 688.285ZM1953.7 689.318 1971.75 692.488 1970.96 697.003 1952.91 693.832ZM1985.3 694.866 2003.35 698.036 2002.56 702.55 1984.51 699.38ZM2016.9 700.414 2034.95 703.584 2034.16 708.098 2016.11 704.928ZM2048.5 705.961 2066.55 709.131 2065.76 713.646 2047.71 710.476ZM2080.1 711.509 2098.15 714.679 2097.36 719.194 2079.31 716.023ZM2111.7 717.057 2129.75 720.227 2128.96 724.741 2110.91 721.571ZM2143.3 722.605 2161.35 725.775 2160.56 730.289 2142.51 727.119ZM2174.9 728.152 2192.96 731.322 2192.16 735.837 2174.11 732.667ZM2206.5 733.7 2224.56 736.87 2223.76 741.384 2205.71 738.214ZM2238.1 739.248 2256.16 742.418 2255.36 746.932 2237.31 743.762ZM2269.7 744.795 2287.76 747.966 2286.96 752.48 2268.91 749.31ZM2301.3 750.343 2319.36 753.513 2318.56 758.028 2300.51 754.858ZM2332.9 755.891 2350.96 759.061 2350.16 763.575 2332.11 760.405ZM2364.5 761.439 2382.56 764.609 2381.76 769.123 2363.71 765.953ZM2396.1 766.986 2414.16 770.157 2413.36 774.671 2395.31 771.501ZM2427.7 772.534 2445.76 775.704 2444.96 780.219 2426.91 777.048ZM2459.3 778.082 2477.36 781.252 2476.56 785.766 2458.51 782.596ZM2490.9 783.63 2508.96 786.8 2508.16 791.314 2490.11 788.144ZM2522.5 789.177 2540.56 792.348 2539.76 796.862 2521.71 793.692ZM2554.1 794.725 2554.18 794.739 2553.39 799.254 2553.31 799.24ZM2551.64 782.66 2576.35 800.958 2546.89 809.746Z" /><path
       id="path52"
       transform="matrix(-1 0 0 1 2577.05 1101.5)"
       fill="#003967"
       d="M0.305813-2.27117 18.4752 0.175336 17.8635 4.71768-0.305813 2.27117ZM32.1022 2.01022 50.2716 4.45672 49.6599 8.99906 31.4906 6.55256ZM63.8986 6.2916 82.0679 8.73811 81.4563 13.2804 63.287 10.8339ZM95.695 10.573 113.864 13.0195 113.253 17.5618 95.0833 15.1153ZM127.491 14.8544 145.661 17.3009 145.049 21.8432 126.88 19.3967ZM159.288 19.1358 177.457 21.5823 176.845 26.1246 158.676 23.6781ZM191.084 23.4171 209.253 25.8636 208.642 30.406 190.472 27.9595ZM222.88 27.6985 241.05 30.145 240.438 34.6874 222.269 32.2409ZM254.677 31.9799 272.846 34.4264 272.235 38.9688 254.065 36.5223ZM286.473 36.2613 304.643 38.7078 304.031 43.2501 285.862 40.8036ZM318.27 40.5427 336.439 42.9892 335.827 47.5315 317.658 45.085ZM350.066 44.8241 368.235 47.2706 367.624 51.8129 349.454 49.3664ZM381.862 49.1054 400.032 51.552 399.42 56.0943 381.251 53.6478ZM413.659 53.3868 431.828 55.8333 431.216 60.3757 413.047 57.9292ZM445.455 57.6682 463.624 60.1147 463.013 64.6571 444.843 62.2106ZM477.251 61.9496 495.421 64.3961 494.809 68.9384 476.64 66.4919ZM509.048 66.231 527.217 68.6775 526.606 73.2198 508.436 70.7733ZM540.844 70.5124 559.014 72.9589 558.402 77.5012 540.233 75.0547ZM572.641 74.7938 590.81 77.2403 590.198 81.7826 572.029 79.3361ZM604.437 79.0751 622.606 81.5217 621.995 86.064 603.825 83.6175ZM636.233 83.3565 654.403 85.803 653.791 90.3454 635.622 87.8989ZM668.03 87.6379 686.199 90.0844 685.587 94.6268 667.418 92.1803ZM699.826 91.9193 717.995 94.3658 717.384 98.9081 699.215 96.4616ZM731.622 96.2007 749.792 98.6472 749.18 103.19 731.011 100.743ZM763.419 100.482 781.588 102.929 780.977 107.471 762.807 105.024ZM795.215 104.763 813.385 107.21 812.773 111.752 794.604 109.306ZM827.012 109.045 845.181 111.491 844.569 116.034 826.4 113.587ZM858.808 113.326 876.978 115.773 876.366 120.315 858.197 117.869ZM890.605 117.608 908.774 120.054 908.162 124.596 889.993 122.15ZM922.401 121.889 940.57 124.335 939.959 128.878 921.789 126.431ZM954.198 126.17 972.367 128.617 971.755 133.159 953.586 130.713ZM985.994 130.452 1004.16 132.898 1003.55 137.441 985.382 134.994ZM1017.79 134.733 1035.96 137.18 1035.35 141.722 1017.18 139.275ZM1049.59 139.015 1067.76 141.461 1067.14 146.003 1048.98 143.557ZM1081.38 143.296 1099.55 145.742 1098.94 150.285 1080.77 147.838ZM1113.18 147.577 1131.35 150.024 1130.74 154.566 1112.57 152.12ZM1144.98 151.859 1163.15 154.305 1162.53 158.848 1144.36 156.401ZM1176.77 156.14 1194.94 158.587 1194.33 163.129 1176.16 160.682ZM1208.57 160.421 1226.74 162.868 1226.13 167.41 1207.96 164.964ZM1240.36 164.703 1258.53 167.149 1257.92 171.692 1239.75 169.245ZM1272.16 168.984 1290.33 171.431 1289.72 175.973 1271.55 173.527ZM1303.96 173.266 1322.13 175.712 1321.52 180.254 1303.35 177.808ZM1335.75 177.547 1353.92 179.993 1353.31 184.536 1335.14 182.089ZM1367.55 181.828 1385.72 184.275 1385.11 188.817 1366.94 186.371ZM1399.35 186.11 1417.52 188.556 1416.9 193.099 1398.74 190.652ZM1431.14 190.391 1449.31 192.838 1448.7 197.38 1430.53 194.934ZM1462.94 194.673 1481.11 197.119 1480.5 201.661 1462.33 199.215ZM1494.74 198.954 1512.91 201.4 1512.29 205.943 1494.12 203.496ZM1526.53 203.235 1544.7 205.682 1544.09 210.224 1525.92 207.778ZM1558.33 207.517 1576.5 209.963 1575.89 214.506 1557.72 212.059ZM1590.12 211.798 1608.29 214.245 1607.68 218.787 1589.51 216.34ZM1621.92 216.079 1640.09 218.526 1639.48 223.068 1621.31 220.622ZM1637.13 206.566 1662.55 223.862 1633.46 233.82Z" /><path
       id="path54"
       transform="matrix(-1 0 0 1 3693.32 1052.5)"
       fill="#003967"
       d="M0.223679-2.28072 18.4695-0.491293 18.0221 4.07016-0.223679 2.28072ZM32.1538 0.850781 50.3996 2.64021 49.9523 7.20166 31.7065 5.41223ZM64.084 3.98229 82.3298 5.77172 81.8824 10.3332 63.6366 8.54373ZM96.0141 7.11379 114.26 8.90322 113.813 13.4647 95.5667 11.6752ZM127.944 10.2453 146.19 12.0347 145.743 16.5962 127.497 14.8067ZM159.874 13.3768 178.12 15.1662 177.673 19.7277 159.427 17.9382ZM191.805 16.5083 210.05 18.2977 209.603 22.8592 191.357 21.0698ZM223.735 19.6398 241.98 21.4292 241.533 25.9907 223.287 24.2013ZM255.665 22.7713 273.911 24.5607 273.463 29.1222 255.217 27.3328ZM287.595 25.9028 305.841 27.6923 305.393 32.2537 287.148 30.4643ZM319.525 29.0343 337.771 30.8238 337.323 35.3852 319.078 33.5958ZM351.455 32.1658 369.701 33.9553 369.254 38.5167 351.008 36.7273ZM383.385 35.2973 401.631 37.0868 401.184 41.6482 382.938 39.8588ZM415.315 38.4288 433.561 40.2183 433.114 44.7797 414.868 42.9903ZM447.246 41.5603 465.491 43.3498 465.044 47.9112 446.798 46.1218ZM479.176 44.6919 497.422 46.4813 496.974 51.0427 478.728 49.2533ZM511.106 47.8234 529.352 49.6128 528.904 54.1742 510.659 52.3848ZM543.036 50.9549 561.282 52.7443 560.835 57.3058 542.589 55.5163ZM574.966 54.0864 593.212 55.8758 592.765 60.4373 574.519 58.6478ZM606.896 57.2179 625.142 59.0073 624.695 63.5688 606.449 61.7793ZM638.827 60.3494 657.072 62.1388 656.625 66.7003 638.379 64.9108ZM670.757 63.4809 689.003 65.2703 688.555 69.8318 670.309 68.0423ZM702.687 66.6124 720.933 68.4018 720.485 72.9633 702.24 71.1739ZM734.617 69.7439 752.863 71.5333 752.416 76.0948 734.17 74.3054ZM766.547 72.8754 784.793 74.6648 784.346 79.2263 766.1 77.4369ZM798.477 76.0069 816.723 77.7963 816.276 82.3578 798.03 80.5684ZM830.407 79.1384 848.653 80.9278 848.206 85.4893 829.96 83.6999ZM862.338 82.2699 880.583 84.0594 880.136 88.6208 861.89 86.8314ZM894.268 85.4014 912.513 87.1909 912.066 91.7523 893.82 89.9629ZM926.198 88.5329 944.444 90.3224 943.996 94.8838 925.75 93.0944ZM958.128 91.6644 976.374 93.4539 975.926 98.0153 957.681 96.2259ZM990.058 94.7959 1008.3 96.5854 1007.86 101.147 989.611 99.3574ZM1021.99 97.9274 1040.23 99.7169 1039.79 104.278 1021.54 102.489ZM1053.92 101.059 1072.16 102.848 1071.72 107.41 1053.47 105.62ZM1085.85 104.19 1104.09 105.98 1103.65 110.541 1085.4 108.752ZM1117.78 107.322 1136.02 109.111 1135.58 113.673 1117.33 111.883ZM1149.71 110.453 1167.95 112.243 1167.51 116.804 1149.26 115.015ZM1181.64 113.585 1199.88 115.374 1199.44 119.936 1181.19 118.146ZM1213.57 116.716 1231.81 118.506 1231.37 123.067 1213.12 121.278ZM1245.5 119.848 1263.74 121.637 1263.3 126.199 1245.05 124.409ZM1277.43 122.979 1295.68 124.769 1295.23 129.33 1276.98 127.541ZM1309.36 126.111 1327.61 127.9 1327.16 132.462 1308.91 130.672ZM1341.29 129.242 1359.54 131.032 1359.09 135.593 1340.84 133.804ZM1373.22 132.374 1391.47 134.163 1391.02 138.725 1372.77 136.935ZM1405.15 135.505 1423.4 137.295 1422.95 141.856 1404.7 140.067ZM1437.08 138.637 1455.33 140.426 1454.88 144.988 1436.63 143.198ZM1469.01 141.768 1487.26 143.558 1486.81 148.119 1468.56 146.33ZM1500.94 144.9 1519.19 146.689 1518.74 151.251 1500.49 149.461ZM1532.87 148.031 1551.12 149.821 1550.67 154.382 1532.42 152.593ZM1564.8 151.163 1583.05 152.952 1582.6 157.514 1564.35 155.724ZM1596.73 154.294 1614.98 156.084 1614.53 160.645 1596.28 158.856ZM1628.66 157.426 1646.91 159.215 1646.46 163.777 1628.21 161.987ZM1660.59 160.557 1678.84 162.347 1678.39 166.908 1660.14 165.119ZM1692.52 163.689 1710.77 165.478 1710.32 170.04 1692.07 168.25ZM1724.45 166.82 1742.7 168.61 1742.25 173.171 1724 171.382ZM1756.38 169.952 1774.63 171.741 1774.18 176.303 1755.93 174.513ZM1788.31 173.084 1806.56 174.873 1806.11 179.434 1787.86 177.645ZM1820.24 176.215 1838.49 178.004 1838.04 182.566 1819.79 180.776ZM1852.17 179.347 1870.42 181.136 1869.97 185.697 1851.72 183.908ZM1884.1 182.478 1902.35 184.267 1901.9 188.829 1883.65 187.039ZM1916.03 185.61 1934.28 187.399 1933.83 191.96 1915.58 190.171ZM1947.96 188.741 1966.21 190.53 1965.76 195.092 1947.51 193.302ZM1979.89 191.873 1998.14 193.662 1997.69 198.223 1979.44 196.434ZM2011.82 195.004 2030.07 196.793 2029.62 201.355 2011.37 199.566ZM2043.75 198.136 2062 199.925 2061.55 204.486 2043.31 202.697ZM2075.68 201.267 2093.93 203.057 2093.48 207.618 2075.24 205.829ZM2107.61 204.399 2125.86 206.188 2125.41 210.749 2107.17 208.96ZM2139.54 207.53 2157.79 209.32 2157.34 213.881 2139.1 212.092ZM2171.47 210.662 2189.72 212.451 2189.27 217.012 2171.03 215.223ZM2203.4 213.793 2221.65 215.583 2221.2 220.144 2202.96 218.355ZM2235.33 216.925 2253.58 218.714 2253.13 223.275 2234.89 221.486ZM2267.26 220.056 2285.51 221.846 2285.06 226.407 2266.82 224.618ZM2299.19 223.188 2317.44 224.977 2316.99 229.539 2298.75 227.749ZM2331.12 226.319 2349.37 228.109 2348.92 232.67 2330.68 230.881ZM2363.05 229.451 2381.3 231.24 2380.85 235.802 2362.61 234.012ZM2394.98 232.582 2413.23 234.372 2412.78 238.933 2394.54 237.144ZM2426.91 235.714 2445.16 237.503 2444.71 242.065 2426.47 240.275ZM2458.84 238.845 2477.09 240.635 2476.64 245.196 2458.4 243.407ZM2490.77 241.977 2509.02 243.766 2508.57 248.328 2490.33 246.538ZM2522.7 245.108 2540.95 246.898 2540.5 251.459 2522.26 249.67ZM2554.63 248.24 2572.88 250.029 2572.43 254.591 2554.19 252.801ZM2586.56 251.371 2604.81 253.161 2604.36 257.722 2586.12 255.933ZM2618.49 254.503 2636.74 256.292 2636.29 260.854 2618.05 259.064ZM2650.43 257.634 2668.67 259.424 2668.22 263.985 2649.98 262.196ZM2682.36 260.766 2700.6 262.555 2700.15 267.117 2681.91 265.327ZM2714.29 263.897 2732.53 265.687 2732.08 270.248 2713.84 268.459ZM2746.22 267.029 2756.22 268.01 2755.77 272.571 2745.77 271.59ZM2752.79 256.16 2778.82 272.529 2750.11 283.529Z" /><path
       id="path56"
       fill="#63666A"
       d="M1914.53 945.208 1932.86 945.421 1932.81 950.004 1914.47 949.791ZM1946.61 945.581 1964.94 945.794 1964.89 950.377 1946.55 950.164ZM1978.69 945.954 1997.02 946.167 1996.97 950.75 1978.64 950.537ZM2010.77 946.327 2029.1 946.54 2029.05 951.123 2010.72 950.91ZM2042.85 946.7 2061.18 946.913 2061.13 951.496 2042.8 951.283ZM2074.93 947.073 2093.26 947.286 2093.21 951.869 2074.88 951.656ZM2107.01 947.446 2125.35 947.659 2125.29 952.242 2106.96 952.029ZM2139.09 947.819 2157.43 948.032 2157.37 952.615 2139.04 952.402ZM2171.18 948.192 2189.51 948.405 2189.45 952.988 2171.12 952.775ZM2203.26 948.564 2221.59 948.778 2221.54 953.361 2203.2 953.147ZM2235.34 948.937 2250.5 949.114 2250.45 953.697 2235.28 953.52ZM2246.05 937.603 2273.39 951.671 2245.73 965.101Z" /><text
       id="text58"
       transform="matrix(1 0 0 1 2945.81 935)"
       font-size="55"
       font-weight="700"
       font-family="Arial,Arial_MSFontService,sans-serif"
       fill="#212322">Not consumed</text>
<path
       id="path60"
       transform="matrix(1 0 0 -1 2879 950.275)"
       fill="#63666A"
       d="M0.117146-5.15492 41.3565-4.21775 41.1222 6.09209-0.117146 5.15492ZM72.286-3.51487 113.525-2.5777 113.291 7.73214 72.0517 6.79497ZM144.455-1.87482 185.694-0.937654 185.46 9.37218 144.221 8.43501ZM216.624-0.234776 257.863 0.702394 257.629 11.0122 216.389 10.0751ZM288.793 1.40527 330.032 2.34244 329.798 12.6523 288.558 11.7151ZM360.961 3.04532 402.201 3.98249 401.967 14.2923 360.727 13.3552ZM433.13 4.68537 470.489 5.53436 470.255 15.8442 432.896 14.9952ZM465.568-4.89263 496.147 11.275 464.866 26.0369Z" /><path
       id="path62"
       fill-rule="evenodd"
       fill="none"
       stroke-miterlimit="8"
       stroke-width="4.58333"
       stroke="#212322"
       d="M2229.48 937.978 2673.33 630.043 3601.57 1967.99 3157.72 2275.92Z" /><path
       id="path64"
       fill-rule="evenodd"
       fill="#92D050"
       stroke-miterlimit="8"
       stroke-width="6.875"
       stroke="#212322"
       d="M2653.5 1505.5C2653.5 1422.66 2789.38 1355.5 2957 1355.5 3124.62 1355.5 3260.5 1422.66 3260.5 1505.5 3260.5 1588.34 3124.62 1655.5 2957 1655.5 2789.38 1655.5 2653.5 1588.34 2653.5 1505.5Z" /><text
       id="text66"
       transform="matrix(1 0 0 1 2777.09 1532)"
       font-size="73"
       font-weight="400"
       font-family="Arial,Arial_MSFontService,sans-serif"
       fill="#212322">Feature</text>
<text
       id="text68"
       transform="matrix(1 0 0 1 3029.75 1532)"
       font-size="73"
       font-weight="400"
       font-family="Arial,Arial_MSFontService,sans-serif"
       fill="#212322">-</text>
<text
       id="text70"
       transform="matrix(1 0 0 1 3054.38 1532)"
       font-size="73"
       font-weight="400"
       font-family="Arial,Arial_MSFontService,sans-serif"
       fill="#212322">2b</text>
<path
       id="path72"
       fill-rule="evenodd"
       fill="#92D050"
       stroke-miterlimit="8"
       stroke-width="6.875"
       stroke="#212322"
       d="M2956.5 1942C2956.5 1858.88 3092.38 1791.5 3260 1791.5 3427.62 1791.5 3563.5 1858.88 3563.5 1942 3563.5 2025.12 3427.62 2092.5 3260 2092.5 3092.38 2092.5 2956.5 2025.12 2956.5 1942Z" /><text
       id="text74"
       transform="matrix(1 0 0 1 3082.34 1969)"
       font-size="73"
       font-weight="400"
       font-family="Arial,Arial_MSFontService,sans-serif"
       fill="#212322">Feature</text>
<text
       id="text76"
       transform="matrix(1 0 0 1 3334.99 1969)"
       font-size="73"
       font-weight="400"
       font-family="Arial,Arial_MSFontService,sans-serif"
       fill="#212322">-</text>
<text
       id="text78"
       transform="matrix(1 0 0 1 3359.63 1969)"
       font-size="73"
       font-weight="400"
       font-family="Arial,Arial_MSFontService,sans-serif"
       fill="#212322">2c</text>
<path
       id="path80"
       fill="#003967"
       d="M2794.5 1054.49 2814.58 1090.53 2805.57 1095.55 2785.5 1059.51ZM2829.63 1117.56 2849.7 1153.59 2840.69 1158.61 2820.62 1122.57ZM2864.76 1180.62 2884.83 1216.66 2875.82 1221.68 2855.75 1185.64ZM2899.88 1243.68 2919.96 1279.72 2910.95 1284.74 2890.88 1248.7ZM2935.01 1306.75 2947.9 1329.89 2938.89 1334.91 2926 1311.77ZM2954.4 1320.37 2955.94 1354.92 2927.37 1335.42Z" /><path
       id="path82"
       fill="#003967"
       d="M3175.63 1608.72 3193.86 1645.72 3184.61 1650.28 3166.37 1613.28ZM3207.53 1673.47 3225.76 1710.48 3216.51 1715.03 3198.28 1678.03ZM3239.44 1738.23 3253.05 1765.85 3243.8 1770.41 3230.19 1742.79ZM3260.02 1756.67 3259.82 1791.25 3232.27 1770.34Z" /><text
       id="text84"
       transform="matrix(0.494621 0.869109 -0.869109 0.494621 2827.66 1101)"
       font-size="55"
       font-weight="700"
       font-family="Arial,Arial_MSFontService,sans-serif"
       fill="#212322">Consumed</text>
<text
       id="text86"
       transform="matrix(0.993011 0.118018 -0.118018 0.993011 2156.49 595)"
       font-size="64"
       font-weight="400"
       font-family="Arial,Arial_MSFontService,sans-serif"
       fill="#212322">rte_edge == 3</text>
<text
       id="text88"
       transform="matrix(0.998819 0.0485938 -0.0485938 0.998819 1925.41 932)"
       font-size="64"
       font-weight="400"
       font-family="Arial,Arial_MSFontService,sans-serif"
       fill="#212322">edge == 0</text>
<text
       id="text90"
       transform="matrix(0.977645 0.210262 -0.210262 0.977645 1670.89 687)"
       font-size="64"
       font-weight="400"
       font-family="Arial,Arial_MSFontService,sans-serif"
       fill="#212322">rte_edge == 2</text>
<text
       id="text92"
       transform="matrix(0.922018 0.387147 -0.387147 0.922018 1082.78 630)"
       font-size="64"
       font-weight="400"
       font-family="Arial,Arial_MSFontService,sans-serif"
       fill="#212322">rte_edge == 1</text>
<text
       id="text94"
       transform="matrix(-1.83697e-16 -1 1 -1.83697e-16 974.705 1097)"
       font-size="64"
       font-weight="400"
       font-family="Arial,Arial_MSFontService,sans-serif"
       fill="#212322">rte_edge == 0</text>
<text
       id="text96"
       transform="matrix(-1.83697e-16 -1 1 -1.83697e-16 896.661 1024)"
       font-size="64"
       font-weight="400"
       font-family="Arial,Arial_MSFontService,sans-serif"
       fill="#212322">Static Path</text>
</g></svg>
