<svg width="1280" height="720" xmlns="http://www.w3.org/2000/svg" xmlns:xlink="http://www.w3.org/1999/xlink" overflow="hidden"><defs><clipPath id="clip0"><rect x="0" y="0" width="1280" height="720"/></clipPath></defs><g clip-path="url(#clip0)"><rect x="0" y="0" width="1280" height="720" fill="#FFFFFF"/><text font-family="Calibri Light,Calibri Light_MSFontService,sans-serif" font-weight="300" font-size="59" transform="translate(110.933 111)">memtank<tspan font-size="59" x="236.9" y="0">(internal structure)</tspan></text><rect x="392.5" y="170.5" width="86" height="16" stroke="#2F528F" stroke-width="1.33333" stroke-miterlimit="8" fill="#D6DCE5"/><rect x="392.5" y="186.5" width="86" height="16" stroke="#2F528F" stroke-width="1.33333" stroke-miterlimit="8" fill="#D6DCE5"/><rect x="392.5" y="202.5" width="86" height="16" stroke="#2F528F" stroke-width="1.33333" stroke-miterlimit="8" fill="#D6DCE5"/><rect x="392.5" y="218.5" width="86" height="16" stroke="#2F528F" stroke-width="1.33333" stroke-miterlimit="8" fill="#D6DCE5"/><rect x="392.5" y="233.5" width="86" height="16" stroke="#2F528F" stroke-width="1.33333" stroke-miterlimit="8" fill="#FFFFFF"/><rect x="392.5" y="249.5" width="86" height="16" stroke="#2F528F" stroke-width="1.33333" stroke-miterlimit="8" fill="#FFFFFF"/><rect x="392.5" y="265.5" width="86" height="16" stroke="#2F528F" stroke-width="1.33333" stroke-miterlimit="8" fill="#FFFFFF"/><rect x="392.5" y="281.5" width="86" height="16" stroke="#2F528F" stroke-width="1.33333" stroke-miterlimit="8" fill="#FFFFFF"/><text font-family="Calibri,Calibri_MSFontService,sans-serif" font-weight="400" font-size="16" transform="translate(205.267 215)">min_free<tspan font-size="16" x="62.62" y="0">(grow thresh) </tspan><tspan font-family="Wingdings,Wingdings_MSFontService,sans-serif" font-size="16" x="154" y="0"></tspan><tspan font-size="16" x="-3.66667" y="81">max_free</tspan><tspan font-size="16" x="61.4733" y="81">(shrink thresh) </tspan><tspan font-family="Wingdings,Wingdings_MSFontService,sans-serif" font-size="16" x="159.593" y="81"></tspan><tspan font-style="italic" font-size="24" x="370.867" y="-3">memtank_alloc</tspan><tspan font-style="italic" font-size="24" x="520.973" y="-3">(</tspan><tspan font-style="italic" font-size="24" x="528.307" y="-3">mtnk</tspan><tspan font-style="italic" font-size="24" x="578.24" y="-3">, </tspan><tspan font-style="italic" font-size="24" x="589.74" y="-3">obj</tspan><tspan font-style="italic" font-size="24" x="620.073" y="-3">[], </tspan><tspan font-style="italic" font-size="24" x="646.24" y="-3">num</tspan><tspan font-style="italic" font-size="24" x="689.907" y="-3">, flags) </tspan></text><path d="M488.5 207.167 561.833 207.167 561.833 207.833 488.5 207.833ZM560.5 203.5 568.5 207.5 560.5 211.5Z" fill="#203864"/><text font-family="Calibri,Calibri_MSFontService,sans-serif" font-style="italic" font-weight="400" font-size="24" transform="translate(577.2 274)">memtank_free(<tspan font-size="24" x="150.273" y="0">mtnk</tspan><tspan font-size="24" x="200.207" y="0">, </tspan>obj<tspan font-size="24" x="242.04" y="0">[], </tspan><tspan font-size="24" x="268.207" y="0">num</tspan><tspan font-size="24" x="311.873" y="0">, flags) </tspan></text><path d="M496.167 269.167 569.5 269.167 569.5 269.833 496.167 269.833ZM497.5 273.5 489.5 269.5 497.5 265.5Z" fill="#5B9BD5"/><rect x="90" y="353" width="162" height="29" fill="#E7E6E6"/><text font-family="Calibri,Calibri_MSFontService,sans-serif" font-weight="400" font-size="16" transform="translate(99.9518 373)">mchunks<tspan font-size="16" x="58.1867" y="0">[USED]</tspan></text><path d="M264.5 365.5 876.43 365.5 876.43 403.05 877.055 403.05" stroke="#000000" stroke-width="0.666667" stroke-miterlimit="8" fill="none" fill-rule="evenodd"/><path d="M847.5 383.5 910.397 383.5" stroke="#000000" stroke-width="0.666667" stroke-miterlimit="8" fill="none" fill-rule="evenodd"/><path d="M865.5 402.5 888.672 402.5" stroke="#000000" stroke-width="0.666667" stroke-miterlimit="8" fill="none" fill-rule="evenodd"/><path d="M858.5 393.5 898.224 393.5" stroke="#000000" stroke-width="0.666667" stroke-miterlimit="8" fill="none" fill-rule="evenodd"/><rect x="325.5" y="385.5" width="85" height="16" stroke="#2F528F" stroke-width="1.33333" stroke-miterlimit="8" fill="#D6DCE5"/><rect x="325.5" y="401.5" width="85" height="16" stroke="#2F528F" stroke-width="1.33333" stroke-miterlimit="8" fill="#FFFFFF"/><rect x="325.5" y="417.5" width="85" height="16" stroke="#2F528F" stroke-width="1.33333" stroke-miterlimit="8" fill="#FFFFFF"/><rect x="325.5" y="433.5" width="85" height="16" stroke="#2F528F" stroke-width="1.33333" stroke-miterlimit="8" fill="#FFFFFF"/><rect x="505.5" y="383.5" width="86" height="16" stroke="#2F528F" stroke-width="1.33333" stroke-miterlimit="8" fill="#D6DCE5"/><rect x="505.5" y="399.5" width="86" height="16" stroke="#2F528F" stroke-width="1.33333" stroke-miterlimit="8" fill="#D6DCE5"/><rect x="505.5" y="415.5" width="86" height="16" stroke="#2F528F" stroke-width="1.33333" stroke-miterlimit="8" fill="#D6DCE5"/><rect x="505.5" y="431.5" width="86" height="16" stroke="#2F528F" stroke-width="1.33333" stroke-miterlimit="8" fill="#FFFFFF"/><rect x="686.5" y="385.5" width="85" height="16" stroke="#2F528F" stroke-width="1.33333" stroke-miterlimit="8" fill="#FFFFFF"/><rect x="686.5" y="401.5" width="85" height="16" stroke="#2F528F" stroke-width="1.33333" stroke-miterlimit="8" fill="#FFFFFF"/><rect x="686.5" y="417.5" width="85" height="16" stroke="#2F528F" stroke-width="1.33333" stroke-miterlimit="8" fill="#FFFFFF"/><rect x="686.5" y="433.5" width="85" height="16" stroke="#2F528F" stroke-width="1.33333" stroke-miterlimit="8" fill="#FFFFFF"/><path d="M368.5 365.5 368.5 385.369" stroke="#000000" stroke-width="0.666667" stroke-miterlimit="8" fill="none" fill-rule="evenodd"/><path d="M548.5 365.5 548.5 384.022" stroke="#000000" stroke-width="0.666667" stroke-miterlimit="8" fill="none" fill-rule="evenodd"/><path d="M728.5 365.5 728.917 385.369" stroke="#000000" stroke-width="0.666667" stroke-miterlimit="8" fill="none" fill-rule="evenodd"/><rect x="90" y="478" width="162" height="29" fill="#E7E6E6"/><text font-family="Calibri,Calibri_MSFontService,sans-serif" font-weight="400" font-size="16" transform="translate(99.5345 498)">mchunks<tspan font-size="16" x="58.1867" y="0">[FULL]</tspan></text><path d="M264.5 490.5 729.18 490.5 729.18 526.369 729.059 526.369" stroke="#000000" stroke-width="0.666667" stroke-miterlimit="8" fill="none" fill-rule="evenodd"/><path d="M699.5 507.5 762.397 507.5" stroke="#000000" stroke-width="0.666667" stroke-miterlimit="8" fill="none" fill-rule="evenodd"/><path d="M718.5 526.5 741.672 526.5" stroke="#000000" stroke-width="0.666667" stroke-miterlimit="8" fill="none" fill-rule="evenodd"/><path d="M710.5 517.5 750.224 517.5" stroke="#000000" stroke-width="0.666667" stroke-miterlimit="8" fill="none" fill-rule="evenodd"/><rect x="325.5" y="510.5" width="85" height="16" stroke="#2F528F" stroke-width="1.33333" stroke-miterlimit="8" fill="#D6DCE5"/><rect x="325.5" y="526.5" width="85" height="16" stroke="#2F528F" stroke-width="1.33333" stroke-miterlimit="8" fill="#D6DCE5"/><rect x="325.5" y="542.5" width="85" height="16" stroke="#2F528F" stroke-width="1.33333" stroke-miterlimit="8" fill="#D6DCE5"/><rect x="325.5" y="558.5" width="85" height="16" stroke="#2F528F" stroke-width="1.33333" stroke-miterlimit="8" fill="#D6DCE5"/><rect x="505.5" y="508.5" width="86" height="16" stroke="#2F528F" stroke-width="1.33333" stroke-miterlimit="8" fill="#D6DCE5"/><rect x="505.5" y="524.5" width="86" height="16" stroke="#2F528F" stroke-width="1.33333" stroke-miterlimit="8" fill="#D6DCE5"/><rect x="505.5" y="540.5" width="86" height="16" stroke="#2F528F" stroke-width="1.33333" stroke-miterlimit="8" fill="#D6DCE5"/><rect x="505.5" y="556.5" width="86" height="16" stroke="#2F528F" stroke-width="1.33333" stroke-miterlimit="8" fill="#D6DCE5"/><path d="M367.5 490.5 367.5 510.369" stroke="#000000" stroke-width="0.666667" stroke-miterlimit="8" fill="none" fill-rule="evenodd"/><path d="M548.5 490.5 548.5 509.022" stroke="#000000" stroke-width="0.666667" stroke-miterlimit="8" fill="none" fill-rule="evenodd"/><text font-family="Calibri,Calibri_MSFontService,sans-serif" font-style="italic" font-weight="400" font-size="24" transform="translate(178.705 644)">memtank_grow<tspan font-size="24" x="154.32" y="0">(</tspan><tspan font-size="24" x="161.653" y="0">mtnk</tspan><tspan font-size="24" x="211.587" y="0">) </tspan><tspan font-size="24" x="303.585" y="0">memtank_shrink</tspan>(<tspan font-size="24" x="473.858" y="0">mtnk</tspan><tspan font-size="24" x="523.792" y="0">) </tspan></text><path d="M0.333333-8.08095e-07 0.333422 36.6397-0.333245 36.6397-0.333333 8.08095e-07ZM4.00009 35.3063 0.000104987 43.3064-3.99991 35.3064Z" fill="#203864" transform="matrix(1 0 0 -1 367.5 620.806)"/><path d="M548.833 577.5 548.833 615.486 548.167 615.486 548.167 577.5ZM552.5 614.153 548.5 622.153 544.5 614.153Z" fill="#5B9BD5"/><path d="M416.833 310.167 416.833 360.426 416.167 360.426 416.167 310.167ZM412.5 311.5 416.5 303.5 420.5 311.5Z" fill="#203864"/><path d="M0.333346 6.66666 0.333438 56.926-0.333228 56.926-0.333321 6.66666ZM-3.99999 8.00001 0 0 4.00001 7.99999Z" fill="#5B9BD5" transform="matrix(1 0 0 -1 450.5 360.426)"/><text fill="#203864" font-family="Calibri,Calibri_MSFontService,sans-serif" font-style="italic" font-weight="400" font-size="16" transform="translate(313.161 342)">ALLOC_CHUNK <tspan font-size="16" x="-51.8536" y="264">ALLOC_GROW </tspan><tspan fill="#4472C4" font-size="16" x="244.219" y="260">FREE_SHRINK </tspan></text><rect x="90" y="161" width="162" height="29" fill="#E7E6E6"/><text font-family="Calibri,Calibri_MSFontService,sans-serif" font-weight="400" font-size="16" transform="translate(99.5345 181)">LIFO queue </text></g></svg>