<?xml version="1.0" encoding="UTF-8" standalone="no"?>
<!-- SPDX-License-Identifier: BSD-3-Clause -->
<!-- Copyright(c) 2022 NVIDIA Corporation & Affiliates -->

<svg
   width="880" height="610"
   xmlns="http://www.w3.org/2000/svg"
   xmlns:xlink="http://www.w3.org/1999/xlink"
   overflow="hidden">
   <defs>
      <clipPath id="clip0">
         <rect x="0" y="0" width="880" height="610"/>
      </clipPath>
   </defs>
   <g clip-path="url(#clip0)">
      <rect x="0" y="0" width="880" height="610" fill="#FFFFFF"/>
      <rect x="333.5" y="0.500053" width="234" height="45" stroke="#000000" stroke-width="1.33333" stroke-miterlimit="8" fill="#A6A6A6"/>
      <text font-family="Consolas,Consolas_MSFontService,sans-serif" font-weight="400" font-size="19" transform="translate(357.196 29)">rte_eth_rx_burst()</text>
      <rect x="333.5" y="63.5001" width="234" height="45" stroke="#000000" stroke-width="1.33333" stroke-miterlimit="8" fill="#D9D9D9"/>
      <text font-family="Calibri,Calibri_MSFontService,sans-serif" font-weight="400" font-size="19" transform="translate(394.666 91)">analyze <tspan font-size="19" x="60.9267" y="0">packet </tspan></text>
      <rect x="572.5" y="279.5" width="234" height="46" stroke="#000000" stroke-width="1.33333" stroke-miterlimit="8" fill="#FFFFFF"/>
      <text font-family="Calibri,Calibri_MSFontService,sans-serif" font-weight="400" font-size="19" transform="translate(591.429 308)">rte_flow_q_create_flow()</text>
      <path d="M333.5 384 450.5 350.5 567.5 384 450.5 417.5Z" stroke="#000000" stroke-width="1.33333" stroke-miterlimit="8" fill="#D9D9D9" fill-rule="evenodd"/>
      <text font-family="Calibri,Calibri_MSFontService,sans-serif" font-weight="400" font-size="19" transform="translate(430.069 378)">more <tspan font-size="19" x="-12.94" y="23">packets?</tspan></text>
      <path d="M689.249 325.5 689.249 338.402 450.5 338.402 450.833 338.069 450.833 343.971 450.167 343.971 450.167 337.735 688.916 337.735 688.582 338.069 688.582 325.5ZM454.5 342.638 450.5 350.638 446.5 342.638Z"/>
      <path d="M450.833 45.5 450.833 56.8197 450.167 56.8197 450.167 45.5001ZM454.5 55.4864 450.5 63.4864 446.5 55.4864Z"/>
      <path d="M450.833 108.5 450.833 120.375 450.167 120.375 450.167 108.5ZM454.5 119.041 450.5 127.041 446.5 119.041Z"/>
      <path d="M451.833 507.5 451.833 533.61 451.167 533.61 451.167 507.5ZM455.5 532.277 451.5 540.277 447.5 532.277Z"/>
      <path d="M0 0.333333-23.9993 0.333333-23.666 0-23.666 141.649-23.9993 141.316 562.966 141.316 562.633 141.649 562.633 124.315 563.299 124.315 563.299 141.983-24.3327 141.983-24.3327-0.333333 0-0.333333ZM558.966 125.649 562.966 117.649 566.966 125.649Z" transform="matrix(-6.12323e-17 -1 -1 6.12323e-17 451.149 585.466)"/>
      <path d="M333.5 160.5 450.5 126.5 567.5 160.5 450.5 194.5Z" stroke="#000000" stroke-width="1.33333" stroke-miterlimit="8" fill="#D9D9D9" fill-rule="evenodd"/>
      <text font-family="Calibri,Calibri_MSFontService,sans-serif" font-weight="400" font-size="19" transform="translate(417.576 155)">add new <tspan font-size="19" x="13.2867" y="23">rule?</tspan></text>
      <path d="M567.5 160.167 689.267 160.167 689.267 273.228 688.6 273.228 688.6 160.5 688.933 160.833 567.5 160.833ZM692.933 271.894 688.933 279.894 684.933 271.894Z"/>
      <rect x="602.5" y="127.5" width="46" height="30" stroke="#000000" stroke-width="0.666667" stroke-miterlimit="8" fill="#D9D9D9"/>
      <text font-family="Trebuchet MS,Trebuchet MS_MSFontService,sans-serif" font-weight="400" font-size="19" transform="translate(611.34 148)">yes</text>
      <rect x="254.5" y="126.5" width="46" height="31" stroke="#000000" stroke-width="0.666667" stroke-miterlimit="8" fill="#D9D9D9"/>
      <text font-family="Trebuchet MS,Trebuchet MS_MSFontService,sans-serif" font-weight="400" font-size="19" transform="translate(267.182 147)">no</text>
      <path d="M0-0.333333 251.563-0.333333 251.563 298.328 8.00002 298.328 8.00002 297.662 251.229 297.662 250.896 297.995 250.896 0 251.229 0.333333 0 0.333333ZM9.33333 301.995 1.33333 297.995 9.33333 293.995Z" transform="matrix(1 0 0 -1 567.5 383.495)"/>
      <path d="M86.5001 213.5 203.5 180.5 320.5 213.5 203.5 246.5Z" stroke="#000000" stroke-width="1.33333" stroke-miterlimit="8" fill="#D9D9D9" fill-rule="evenodd"/>
      <text font-family="Calibri,Calibri_MSFontService,sans-serif" font-weight="400" font-size="19" transform="translate(159.155 208)">destroy the <tspan font-size="19" x="24.0333" y="23">rule?</tspan></text>
      <path d="M0-0.333333 131.029-0.333333 131.029 12.9778 130.363 12.9778 130.363 0 130.696 0.333333 0 0.333333ZM134.696 11.6445 130.696 19.6445 126.696 11.6445Z" transform="matrix(-1 1.22465e-16 1.22465e-16 1 334.196 160.5)"/>
      <rect x="81.5001" y="280.5" width="234" height="45" stroke="#000000" stroke-width="1.33333" stroke-miterlimit="8" fill="#FFFFFF"/>
      <text font-family="Calibri,Calibri_MSFontService,sans-serif" font-weight="400" font-size="19" transform="translate(96.2282 308)">rte_flow_q_destroy_flow()</text>
      <path d="M0 0.333333-24.0001 0.333333-23.6667 0-23.6667 49.9498-24.0001 49.6165 121.748 49.6165 121.748 59.958 121.082 59.958 121.082 49.9498 121.415 50.2832-24.3334 50.2832-24.3334-0.333333 0-0.333333ZM125.415 58.6247 121.415 66.6247 117.415 58.6247Z" transform="matrix(-1 0 0 1 319.915 213.5)"/>
      <path d="M86.5001 213.833 62.5002 213.833 62.8335 213.5 62.8335 383.95 62.5002 383.617 327.511 383.617 327.511 384.283 62.1668 384.283 62.1668 213.167 86.5001 213.167ZM326.178 379.95 334.178 383.95 326.178 387.95Z"/>
      <path d="M0-0.333333 12.8273-0.333333 12.8273 252.111 12.494 251.778 18.321 251.778 18.321 252.445 12.1607 252.445 12.1607 0 12.494 0.333333 0 0.333333ZM16.9877 248.111 24.9877 252.111 16.9877 256.111Z" transform="matrix(1.83697e-16 1 1 -1.83697e-16 198.5 325.5)"/>
      <rect x="334.5" y="540.5" width="234" height="45" stroke="#000000" stroke-width="1.33333" stroke-miterlimit="8" fill="#FFFFFF"/>
      <text font-family="Calibri,Calibri_MSFontService,sans-serif" font-weight="400" font-size="19" transform="translate(365.083 569)">rte_flow_q_dequeue<tspan font-size="19" x="160.227" y="0">()</tspan></text>
      <rect x="334.5" y="462.5" width="234" height="45" stroke="#000000" stroke-width="1.33333" stroke-miterlimit="8" fill="#FFFFFF"/>
      <text font-family="Calibri,Calibri_MSFontService,sans-serif" font-weight="400" font-size="19" transform="translate(379.19 491)">rte_flow_q<tspan font-size="19" x="83.56" y="0">_drain</tspan>()</text>
      <path d="M450.833 417.495 451.402 455.999 450.735 456.008 450.167 417.505ZM455.048 454.611 451.167 462.669 447.049 454.729Z"/>
      <rect x="0.500053" y="287.5" width="46" height="30" stroke="#000000" stroke-width="0.666667" stroke-miterlimit="8" fill="#D9D9D9"/>
      <text font-family="Trebuchet MS,Trebuchet MS_MSFontService,sans-serif" font-weight="400" font-size="19" transform="translate(12.8617 308)">no</text>
      <rect x="357.5" y="223.5" width="47" height="31" stroke="#000000" stroke-width="0.666667" stroke-miterlimit="8" fill="#D9D9D9"/>
      <text font-family="Trebuchet MS,Trebuchet MS_MSFontService,sans-serif" font-weight="400" font-size="19" transform="translate(367.001 244)">yes</text>
      <rect x="469.5" y="421.5" width="46" height="30" stroke="#000000" stroke-width="0.666667" stroke-miterlimit="8" fill="#D9D9D9"/>
      <text font-family="Trebuchet MS,Trebuchet MS_MSFontService,sans-serif" font-weight="400" font-size="19" transform="translate(481.872 442)">no</text>
      <rect x="832.5" y="223.5" width="46" height="31" stroke="#000000" stroke-width="0.666667" stroke-miterlimit="8" fill="#D9D9D9"/>
      <text font-family="Trebuchet MS,Trebuchet MS_MSFontService,sans-serif" font-weight="400" font-size="19" transform="translate(841.777 244)">yes</text>
   </g>
</svg>