<?xml version="1.0" encoding="UTF-8" standalone="no"?>
<!-- SPDX-License-Identifier: BSD-3-Clause -->
<!-- Copyright(c) 2022 NVIDIA Corporation & Affiliates -->

<svg
   width="485" height="535"
   xmlns="http://www.w3.org/2000/svg"
   xmlns:xlink="http://www.w3.org/1999/xlink"
   overflow="hidden">
   <defs>
      <clipPath id="clip0">
         <rect x="0" y="0" width="485" height="535"/>
      </clipPath>
   </defs>
   <g clip-path="url(#clip0)">
      <rect x="0" y="0" width="485" height="535" fill="#FFFFFF"/>
      <rect x="0.500053" y="79.5001" width="482" height="59"
         stroke="#000000" stroke-width="1.33333" stroke-miterlimit="8"
         fill="#A6A6A6"/>
      <text font-family="Calibri,Calibri_MSFontService,sans-serif"
         font-weight="400" font-size="24" transform="translate(121.6 116)">
         rte_eth_dev_configure
         <tspan font-size="24" x="224.007" y="0">()</tspan>
      </text>
      <rect x="0.500053" y="158.5" width="482" height="59" stroke="#000000"
         stroke-width="1.33333" stroke-miterlimit="8" fill="#FFFFFF"/>
      <text font-family="Calibri,Calibri_MSFontService,sans-serif"
         font-weight="400" font-size="24" transform="translate(140.273 195)">
         rte_flow_configure()
      </text>
      <rect x="0.500053" y="236.5" width="482" height="60" stroke="#000000"
         stroke-width="1.33333" stroke-miterlimit="8" fill="#FFFFFF"/>
      <text font-family="Calibri,Calibri_MSFontService,sans-serif"
         font-weight="400" font-size="24" transform="translate(77.4259 274)">
         rte_flow_item_template_create()
      </text>
      <rect x="0.500053" y="316.5" width="482" height="59" stroke="#000000"
         stroke-width="1.33333" stroke-miterlimit="8" fill="#FFFFFF"/>
      <text font-family="Calibri,Calibri_MSFontService,sans-serif"
         font-weight="400" font-size="24" transform="translate(69.3792 353)">
         rte_flow_action_template_create
         <tspan font-size="24" x="328.447" y="0">(</tspan>)
      </text>
      <rect x="0.500053" y="0.500053" width="482" height="60" stroke="#000000"
         stroke-width="1.33333" stroke-miterlimit="8" fill="#A6A6A6"/>
      <text font-family="Calibri,Calibri_MSFontService,sans-serif"
         font-weight="400" font-size="24" transform="translate(177.233 37)">
         rte_eal_init
         <tspan font-size="24" x="112.74" y="0">()</tspan>
      </text>
      <path d="M2-1.09108e-05 2.00005 9.2445-1.99995 9.24452-2 1.09108e-05ZM6.00004 7.24448 0.000104987 19.2445-5.99996 7.24455Z" transform="matrix(-1 0 0 1 241 60)"/>
      <path d="M2-1.08133e-05 2.00005 9.41805-1.99995 9.41807-2 1.08133e-05ZM6.00004 7.41802 0.000104987 19.4181-5.99996 7.41809Z" transform="matrix(-1 0 0 1 241 138)"/>
      <path d="M2-1.09108e-05 2.00005 9.2445-1.99995 9.24452-2 1.09108e-05ZM6.00004 7.24448 0.000104987 19.2445-5.99996 7.24455Z" transform="matrix(-1 0 0 1 241 217)"/>
      <rect x="0.500053" y="395.5" width="482" height="59" stroke="#000000"
         stroke-width="1.33333" stroke-miterlimit="8" fill="#FFFFFF"/>
      <text font-family="Calibri,Calibri_MSFontService,sans-serif"
         font-weight="400" font-size="24" transform="translate(124.989 432)">
         rte_flow_table_create
         <tspan font-size="24" x="217.227" y="0">(</tspan>
         <tspan font-size="24" x="224.56" y="0">)</tspan>
      </text>
      <path d="M2-1.05859e-05 2.00005 9.83526-1.99995 9.83529-2 1.05859e-05ZM6.00004 7.83524 0.000104987 19.8353-5.99996 7.83531Z" transform="matrix(-1 0 0 1 241 296)"/>
      <path d="M243 375 243 384.191 239 384.191 239 375ZM247 382.191 241 394.191 235 382.191Z"/>
      <rect x="0.500053" y="473.5" width="482" height="60" stroke="#000000"
         stroke-width="1.33333" stroke-miterlimit="8" fill="#A6A6A6"/>
      <text font-family="Calibri,Calibri_MSFontService,sans-serif"
         font-weight="400" font-size="24" transform="translate(145.303 511)">
         rte_eth_dev_start()</text>
      <path d="M245 454 245 463.191 241 463.191 241 454ZM249 461.191 243 473.191 237 461.191Z"/>
   </g>
</svg>