<?xml version="1.0" encoding="UTF-8" standalone="no"?>
<!DOCTYPE svg PUBLIC "-//W3C//DTD SVG 1.1//EN"
 "http://www.w3.org/Graphics/SVG/1.1/DTD/svg11.dtd">
<!-- Generated by graphviz version 2.43.0 (0)
 -->
<!-- SPDX-License-Identifier: BSD-3-Clause -->
<!-- Copyright(C) 2023 Marvell. -->
<!--

Generated with following command
dot -Tsvg dot.dot -o doc/guides/tools/img/graph-usecase-l2fwd.svg

cat dot.dot
digraph dpdk_app_graph_l2fwd_nodes_flow {
    ingress_port [shape=rect]
    ethdev_rx
    ethdev_tx
    pkt_drop
    egress_port  [shape=rect]

    ingress_port -> ethdev_rx [label="ingress packet"]

    ethdev_rx -> ethdev_tx
    ethdev_rx -> pkt_drop [color="green"]
}

 -->
<!-- Title: dpdk_app_graph_l2fwd_nodes_flow Pages: 1 -->
<svg width="299pt" height="204pt"
 viewBox="0.00 0.00 299.40 204.00" xmlns="http://www.w3.org/2000/svg" xmlns:xlink="http://www.w3.org/1999/xlink">
<g id="graph0" class="graph" transform="scale(1 1) rotate(0) translate(4 200)">
<title>dpdk_app_graph_l2fwd_nodes_flow</title>
<polygon fill="white" stroke="transparent" points="-4,4 -4,-200 295.4,-200 295.4,4 -4,4"/>
<!-- ingress_port -->
<g id="node1" class="node">
<title>ingress_port</title>
<polygon fill="none" stroke="black" points="171.9,-196 65.9,-196 65.9,-160 171.9,-160 171.9,-196"/>
<text text-anchor="middle" x="118.9" y="-174.3" font-family="Times,serif" font-size="14.00">ingress_port</text>
</g>
<!-- ethdev_rx -->
<g id="node2" class="node">
<title>ethdev_rx</title>
<ellipse fill="none" stroke="black" cx="118.9" cy="-91" rx="56.59" ry="18"/>
<text text-anchor="middle" x="118.9" y="-87.3" font-family="Times,serif" font-size="14.00">ethdev_rx</text>
</g>
<!-- ingress_port&#45;&gt;ethdev_rx -->
<g id="edge1" class="edge">
<title>ingress_port&#45;&gt;ethdev_rx</title>
<path fill="none" stroke="black" d="M118.9,-159.8C118.9,-148.16 118.9,-132.55 118.9,-119.24"/>
<polygon fill="black" stroke="black" points="122.4,-119.18 118.9,-109.18 115.4,-119.18 122.4,-119.18"/>
<text text-anchor="middle" x="171.4" y="-130.8" font-family="Times,serif" font-size="14.00">ingress packet</text>
</g>
<!-- ethdev_tx -->
<g id="node3" class="node">
<title>ethdev_tx</title>
<ellipse fill="none" stroke="black" cx="55.9" cy="-18" rx="55.79" ry="18"/>
<text text-anchor="middle" x="55.9" y="-14.3" font-family="Times,serif" font-size="14.00">ethdev_tx</text>
</g>
<!-- ethdev_rx&#45;&gt;ethdev_tx -->
<g id="edge2" class="edge">
<title>ethdev_rx&#45;&gt;ethdev_tx</title>
<path fill="none" stroke="black" d="M104.28,-73.53C96.37,-64.61 86.43,-53.41 77.62,-43.49"/>
<polygon fill="black" stroke="black" points="80.12,-41.03 70.87,-35.87 74.88,-45.67 80.12,-41.03"/>
</g>
<!-- pkt_drop -->
<g id="node4" class="node">
<title>pkt_drop</title>
<ellipse fill="none" stroke="black" cx="181.9" cy="-18" rx="51.99" ry="18"/>
<text text-anchor="middle" x="181.9" y="-14.3" font-family="Times,serif" font-size="14.00">pkt_drop</text>
</g>
<!-- ethdev_rx&#45;&gt;pkt_drop -->
<g id="edge3" class="edge">
<title>ethdev_rx&#45;&gt;pkt_drop</title>
<path fill="none" stroke="green" d="M133.51,-73.53C141.54,-64.48 151.65,-53.09 160.55,-43.06"/>
<polygon fill="green" stroke="green" points="163.34,-45.18 167.36,-35.38 158.11,-40.53 163.34,-45.18"/>
</g>
<!-- egress_port -->
<g id="node5" class="node">
<title>egress_port</title>
<polygon fill="none" stroke="black" points="291.4,-196 190.4,-196 190.4,-160 291.4,-160 291.4,-196"/>
<text text-anchor="middle" x="240.9" y="-174.3" font-family="Times,serif" font-size="14.00">egress_port</text>
</g>
</g>
</svg>
